
<svg version="1.1" id="Layer_1" xmlns="http://www.w3.org/2000/svg" xmlns:xlink="http://www.w3.org/1999/xlink" x="0px" y="0px"width="3840px" height="2160px" viewBox="0 0 3840 2160" enable-background="new 0 0 3840 2160" xml:space="preserve"><g><circle fill="#7545FF" cx="1920" cy="1080.001" r="750.002"/><g><path fill="#FFFFFF" d="M1986.031,914.562c84.223,30.075,141.377,60.155,192.514,96.256c69.186-78.21,72.188-183.487,66.178-252.676C2187.569,827.33,2100.338,881.473,1986.031,914.562L1986.031,914.562z"/><path fill="#FFFFFF" d="M1576.944,1642.5c57.149-81.224,135.361-99.265,270.718-132.356c54.145-12.031,111.3-27.07,183.491-48.125c168.447-51.137,210.557-144.385,222.588-195.527c15.045-69.175-12.031-141.372-63.164-183.481c-114.307-93.253-225.6-132.356-391.04-165.443l-33.089-9.023l36.097-3.008c201.538-27.072,342.911-90.24,418.11-195.522c57.152-78.208,60.162-156.415,60.162-192.512c-45.117,69.185-135.361,90.239-276.734,123.332c-57.152,15.036-123.331,30.078-198.53,54.143c-168.451,48.126-210.564,141.377-219.585,195.521c-15.042,66.176,9.021,138.369,60.16,183.485c114.305,93.247,225.599,129.346,391.038,162.437l36.102,9.023l-36.102,3.008c-102.266,15.039-201.534,36.094-279.741,63.169c-96.26,33.084-156.417,75.198-180.48,123.328C1543.854,1501.126,1564.91,1606.403,1576.944,1642.5L1576.944,1642.5z"/></g></g></svg>
